<?xml version="1.0" encoding="UTF-8" standalone="no"?>
<!-- Created with Inkscape (http://www.inkscape.org/) -->

<svg
   xmlns:dc="http://purl.org/dc/elements/1.1/"
   xmlns:cc="http://creativecommons.org/ns#"
   xmlns:rdf="http://www.w3.org/1999/02/22-rdf-syntax-ns#"
   xmlns:svg="http://www.w3.org/2000/svg"
   xmlns="http://www.w3.org/2000/svg"
   xmlns:sodipodi="http://sodipodi.sourceforge.net/DTD/sodipodi-0.dtd"
   xmlns:inkscape="http://www.inkscape.org/namespaces/inkscape"
   width="210mm"
   height="221mm"
   viewBox="0 0 210 221"
   version="1.1"
   id="svg8"
   inkscape:version="0.92.4 (unknown)"
   sodipodi:docname="xrp.svg">
  <defs
     id="defs2" />
  <sodipodi:namedview
     id="base"
     pagecolor="#ffffff"
     bordercolor="#666666"
     borderopacity="1.0"
     inkscape:pageopacity="0.0"
     inkscape:pageshadow="2"
     inkscape:zoom="0.7"
     inkscape:cx="314.5234"
     inkscape:cy="40.181858"
     inkscape:document-units="mm"
     inkscape:current-layer="layer1"
     showgrid="false"
     inkscape:window-width="3840"
     inkscape:window-height="2032"
     inkscape:window-x="0"
     inkscape:window-y="54"
     inkscape:window-maximized="1" />
  <metadata
     id="metadata5">
    <rdf:RDF>
      <cc:Work
         rdf:about="">
        <dc:format>image/svg+xml</dc:format>
        <dc:type
           rdf:resource="http://purl.org/dc/dcmitype/StillImage" />
        <dc:title></dc:title>
      </cc:Work>
    </rdf:RDF>
  </metadata>
  <g
     inkscape:label="Layer 1"
     inkscape:groupmode="layer"
     id="layer1"
     transform="translate(0,-76)">
    <g
       id="g75"
       transform="matrix(0.64523547,0,0,0.64523547,-208.66635,100.83028)">
      <path
         style="fill:#616161;stroke-width:0.26458332"
         d="m 335.35938,260.82767 c 4.07264,-4.07458 7.46432,-7.40833 7.53708,-7.40833 0.0728,0 -3.19986,3.33375 -7.2725,7.40833 -4.07263,4.07459 -7.46432,7.40834 -7.53708,7.40834 -0.0728,0 3.19987,-3.33375 7.2725,-7.40834 z m 42.33334,3.70417 c 2.03339,-2.03729 3.7566,-3.70417 3.82937,-3.70417 0.0728,0 -1.5314,1.66688 -3.56479,3.70417 -2.03339,2.03729 -3.75661,3.70417 -3.82937,3.70417 -0.0728,0 1.53139,-1.66688 3.56479,-3.70417 z m 218.01312,-0.0661 -3.70062,-3.77031 3.77031,3.70062 c 3.50245,3.43771 3.89014,3.84001 3.70062,3.84001 -0.0383,0 -1.73498,-1.69664 -3.77031,-3.77032 z m 42.3351,-3.70416 -7.40656,-7.47448 7.47448,7.40656 c 4.11096,4.07361 7.47448,7.43712 7.47448,7.47448 0,0.18707 -0.65947,-0.46051 -7.5424,-7.40656 z M 403.62188,238.86726 c 4.07264,-4.07458 7.46432,-7.40833 7.53708,-7.40833 0.0728,0 -3.19986,3.33375 -7.27249,7.40833 -4.07264,4.07458 -7.46433,7.40833 -7.53709,7.40833 -0.0728,0 3.19987,-3.33375 7.2725,-7.40833 z m 166.15656,-0.0661 -7.40656,-7.47448 7.47448,7.40656 c 6.94605,6.88294 7.59364,7.5424 7.40656,7.5424 -0.0374,0 -3.40087,-3.36351 -7.47448,-7.47448 z M 365.2573,231.19434 c 4.07263,-4.07458 7.46432,-7.40833 7.53708,-7.40833 0.0728,0 -3.19986,3.33375 -7.2725,7.40833 -4.07263,4.07459 -7.46432,7.40834 -7.53708,7.40834 -0.0728,0 3.19986,-3.33375 7.2725,-7.40834 z m 242.88573,-0.0661 -7.40657,-7.47448 7.47448,7.40656 c 4.11097,4.07361 7.47448,7.43712 7.47448,7.47448 0,0.18707 -0.65947,-0.46051 -7.54239,-7.40656 z m -189.30761,-7.2099 c 4.14543,-4.14734 7.59668,-7.54062 7.66944,-7.54062 0.0728,0 -3.25943,3.39328 -7.40485,7.54062 -4.14543,4.14734 -7.59668,7.54063 -7.66944,7.54063 -0.0728,0 3.25943,-3.39329 7.40485,-7.54063 z m 135.73125,0 c -4.14542,-4.14734 -7.47761,-7.54062 -7.40485,-7.54062 0.0728,0 3.52401,3.39328 7.66944,7.54062 4.14542,4.14734 7.47761,7.54063 7.40485,7.54063 -0.0728,0 -3.52401,-3.39329 -7.66944,-7.54063 z m -127.52916,-8.16969 c 0,-0.0549 0.20836,-0.2633 0.46302,-0.46302 0.41964,-0.3291 0.429,-0.31975 0.0999,0.0999 -0.34564,0.44073 -0.56291,0.58089 -0.56291,0.36312 z m 119.02875,-0.36312 c -0.32911,-0.41965 -0.31975,-0.429 0.0999,-0.0999 0.25466,0.19972 0.46302,0.40808 0.46302,0.46302 0,0.21777 -0.21727,0.0776 -0.56291,-0.36312 z m -117.97042,-0.69521 c 0,-0.0549 0.20836,-0.2633 0.46302,-0.46302 0.41965,-0.32911 0.429,-0.31975 0.0999,0.0999 -0.34565,0.44073 -0.56292,0.58088 -0.56292,0.36312 z m 116.91208,-0.36312 c -0.3291,-0.41965 -0.31975,-0.42901 0.0999,-0.0999 0.25466,0.19972 0.46302,0.40808 0.46302,0.46302 0,0.21776 -0.21727,0.0776 -0.56292,-0.36312 z m -114.53083,-2.01813 c 0,-0.0549 0.20836,-0.2633 0.46302,-0.46302 0.41965,-0.32911 0.429,-0.31975 0.0999,0.0999 -0.34565,0.44073 -0.56292,0.58088 -0.56292,0.36312 z m 112.14958,-0.36312 c -0.3291,-0.41965 -0.31975,-0.42901 0.0999,-0.0999 0.44073,0.34564 0.58089,0.56292 0.36312,0.56292 -0.0549,0 -0.2633,-0.20836 -0.46302,-0.46302 z m -109.76833,-2.01813 c 0,-0.0549 0.20836,-0.2633 0.46302,-0.46302 0.41965,-0.32911 0.429,-0.31975 0.0999,0.0999 -0.34565,0.44073 -0.56292,0.58088 -0.56292,0.36312 z m 107.38708,-0.36312 c -0.3291,-0.41965 -0.31975,-0.42901 0.0999,-0.0999 0.44073,0.34564 0.58089,0.56292 0.36312,0.56292 -0.0549,0 -0.2633,-0.20836 -0.46302,-0.46302 z m -145.35479,-7.73907 c 4.07264,-4.07458 7.46432,-7.40833 7.53708,-7.40833 0.0728,0 -3.19986,3.33375 -7.2725,7.40833 -4.07263,4.07459 -7.46432,7.40834 -7.53708,7.40834 -0.0728,0 3.19987,-3.33375 7.2725,-7.40834 z m 183.61906,-0.0661 -7.40656,-7.47448 7.47448,7.40656 c 6.94605,6.88294 7.59364,7.5424 7.40656,7.5424 -0.0373,0 -3.40087,-3.36352 -7.47448,-7.47448 z m -143.2701,5.78708 c 0,-0.0549 0.20836,-0.2633 0.46302,-0.46302 0.41965,-0.32911 0.429,-0.31975 0.0999,0.0999 -0.34565,0.44073 -0.56292,0.58088 -0.56292,0.36312 z m 102.62458,-0.36312 c -0.3291,-0.41965 -0.31975,-0.42901 0.0999,-0.0999 0.44073,0.34564 0.58089,0.56292 0.36312,0.56292 -0.0549,0 -0.2633,-0.20836 -0.46302,-0.46302 z m -100.24333,-2.01813 c 0,-0.0549 0.20836,-0.2633 0.46302,-0.46302 0.41965,-0.32911 0.429,-0.31975 0.0999,0.0999 -0.34565,0.44073 -0.56292,0.58088 -0.56292,0.36312 z m 97.86208,-0.36312 c -0.3291,-0.41965 -0.31975,-0.42901 0.0999,-0.0999 0.25466,0.19972 0.46302,0.40808 0.46302,0.46302 0,0.21776 -0.21727,0.0776 -0.56292,-0.36312 z m -90.58604,-6.68073 c 2.17918,-2.18281 4.02167,-3.96875 4.09443,-3.96875 0.0728,0 -1.65067,1.78594 -3.82984,3.96875 -2.17918,2.18281 -4.02167,3.96875 -4.09443,3.96875 -0.0728,0 1.65067,-1.78594 3.82984,-3.96875 z m 83.60834,0 c -2.17918,-2.18281 -3.90261,-3.96875 -3.82985,-3.96875 0.0728,0 1.91525,1.78594 4.09443,3.96875 2.17917,2.18281 3.9026,3.96875 3.82984,3.96875 -0.0728,0 -1.91525,-1.78594 -4.09442,-3.96875 z m -78.18438,-5.12698 c 0,-0.0549 0.20836,-0.2633 0.46302,-0.46302 0.41965,-0.32911 0.429,-0.31975 0.0999,0.0999 -0.34565,0.44073 -0.56292,0.58089 -0.56292,0.36313 z m 72.46208,-0.36313 c -0.3291,-0.41964 -0.31975,-0.429 0.0999,-0.0999 0.25466,0.19972 0.46302,0.40808 0.46302,0.46302 0,0.21776 -0.21727,0.0776 -0.56292,-0.36313 z m -70.87458,-0.95979 c 0,-0.0549 0.20836,-0.2633 0.46302,-0.46302 0.41965,-0.32911 0.429,-0.31975 0.0999,0.0999 -0.34565,0.44073 -0.56292,0.58088 -0.56292,0.36312 z m 69.28708,-0.36312 c -0.3291,-0.41965 -0.31975,-0.42901 0.0999,-0.0999 0.25466,0.19972 0.46302,0.40808 0.46302,0.46302 0,0.21776 -0.21727,0.0776 -0.56292,-0.36312 z m -62.14333,-4.41818 c 0,-0.0728 0.35719,-0.317 0.79375,-0.54276 0.43656,-0.22576 0.79375,-0.35093 0.79375,-0.27817 0,0.0728 -0.35719,0.317 -0.79375,0.54275 -0.43656,0.22576 -0.79375,0.35094 -0.79375,0.27818 z m 54.7026,-0.29722 c -0.98912,-0.53661 -0.92892,-0.76011 0.0661,-0.24554 0.43656,0.22576 0.79375,0.46694 0.79375,0.53596 0,0.17026 -0.0284,0.16066 -0.8599,-0.29042 z m -49.74607,-2.26275 c 0.17947,-0.18082 0.39297,-0.26211 0.47443,-0.18065 0.0815,0.0815 -0.0654,0.22941 -0.32632,0.32877 -0.37708,0.14358 -0.40747,0.11319 -0.14811,-0.14812 z m 45.3143,0.0328 c -0.23846,-0.1541 -0.2711,-0.25809 -0.0818,-0.26053 0.17331,-0.002 0.3887,0.11501 0.47864,0.26053 0.20301,0.32849 0.11142,0.32849 -0.39688,0 z m -35.23919,-3.35573 c 0.191,-0.0764 0.4192,-0.067 0.50712,0.0209 0.0879,0.0879 -0.0684,0.15045 -0.34727,0.13897 -0.30822,-0.0127 -0.37092,-0.0754 -0.15985,-0.15986 z m 25.13542,0 c 0.19099,-0.0764 0.4192,-0.067 0.50712,0.0209 0.0879,0.0879 -0.0684,0.15045 -0.34727,0.13897 -0.30823,-0.0127 -0.37092,-0.0754 -0.15985,-0.15986 z m -22.75417,-0.52917 c 0.191,-0.0764 0.4192,-0.067 0.50712,0.0209 0.0879,0.0879 -0.0684,0.15046 -0.34727,0.13897 -0.30822,-0.0127 -0.37092,-0.0754 -0.15985,-0.15985 z m 20.37292,0 c 0.19099,-0.0764 0.4192,-0.067 0.50712,0.0209 0.0879,0.0879 -0.0684,0.15046 -0.34727,0.13897 -0.30823,-0.0127 -0.37092,-0.0754 -0.15985,-0.15985 z m -18.78542,-0.26458 c 0.191,-0.0764 0.4192,-0.067 0.50712,0.0209 0.0879,0.0879 -0.0684,0.15045 -0.34727,0.13897 -0.30822,-0.0127 -0.37092,-0.0754 -0.15985,-0.15986 z m 17.19792,0 c 0.19099,-0.0764 0.4192,-0.067 0.50712,0.0209 0.0879,0.0879 -0.0684,0.15045 -0.34727,0.13897 -0.30823,-0.0127 -0.37092,-0.0754 -0.15985,-0.15986 z m -14.96046,-0.2672 c 0.25743,-0.0671 0.61462,-0.0627 0.79375,0.01 0.17913,0.0725 -0.0315,0.12737 -0.46806,0.12197 -0.43656,-0.005 -0.58312,-0.0647 -0.32569,-0.13177 z m 12.43541,0 c 0.25744,-0.0671 0.61462,-0.0627 0.79375,0.01 0.17914,0.0725 -0.0315,0.12737 -0.46805,0.12197 -0.43656,-0.005 -0.58313,-0.0647 -0.3257,-0.13177 z m -71.24409,-4.44686 c 2.39778,-2.40109 4.41914,-4.36562 4.4919,-4.36562 0.0728,0 -1.82953,1.96453 -4.22732,4.36562 -2.39779,2.4011 -4.41914,4.36563 -4.4919,4.36563 -0.0728,0 1.82953,-1.96453 4.22732,-4.36563 z m 130.43657,-0.0661 -4.36261,-4.43177 4.43177,4.36261 c 4.11729,4.05305 4.5514,4.50093 4.36261,4.50093 -0.038,0 -2.03233,-1.9943 -4.43177,-4.43177 z m -125.67407,-4.38227 c 0,-0.0455 0.38695,-0.43249 0.85989,-0.8599 l 0.8599,-0.7771 -0.77711,0.85989 c -0.72437,0.80155 -0.94268,0.98151 -0.94268,0.77711 z m 120.23648,-0.77711 -0.77711,-0.85989 0.8599,0.7771 c 0.80154,0.72437 0.98151,0.94269 0.7771,0.94269 -0.0455,0 -0.43249,-0.38695 -0.85989,-0.8599 z M 429.28647,168.2236 c 0.26339,-0.29104 0.53842,-0.52916 0.61118,-0.52916 0.0728,0 -0.0832,0.23812 -0.3466,0.52916 -0.26339,0.29104 -0.53842,0.52917 -0.61118,0.52917 -0.0728,0 0.0832,-0.23813 0.3466,-0.52917 z m 114.80402,-0.0661 -0.50402,-0.59532 0.59531,0.50403 c 0.55944,0.47366 0.71576,0.6866 0.50403,0.6866 -0.0502,0 -0.3181,-0.26789 -0.59532,-0.59531 z m -111.23215,-2.67959 c 0,-0.0549 0.20836,-0.2633 0.46302,-0.46302 0.41965,-0.32911 0.429,-0.31975 0.0999,0.0999 -0.34565,0.44073 -0.56292,0.58089 -0.56292,0.36312 z m 107.38708,-0.36312 c -0.3291,-0.41965 -0.31975,-0.42901 0.0999,-0.0999 0.44073,0.34565 0.58089,0.56292 0.36312,0.56292 -0.0549,0 -0.2633,-0.20836 -0.46302,-0.46302 z m -106.32875,-0.43063 c 0,-0.0549 0.20836,-0.2633 0.46302,-0.46302 0.41965,-0.32911 0.42901,-0.31975 0.0999,0.0999 -0.34564,0.44073 -0.56292,0.58089 -0.56292,0.36312 z m 105.27042,-0.36312 c -0.32911,-0.41965 -0.31975,-0.42901 0.0999,-0.0999 0.25466,0.19972 0.46302,0.40808 0.46302,0.46302 0,0.21777 -0.21728,0.0776 -0.56292,-0.36312 z m -96.53917,-5.4618 c 0,-0.0572 0.18478,-0.17489 0.41062,-0.26155 0.23546,-0.0904 0.34166,-0.046 0.24897,0.10398 -0.15538,0.25141 -0.65959,0.37186 -0.65959,0.15757 z m 87.71125,-0.15757 c -0.0927,-0.14998 0.0135,-0.19433 0.24897,-0.10398 0.45837,0.17589 0.54223,0.36554 0.16165,0.36554 -0.13693,0 -0.32171,-0.1177 -0.41062,-0.26156 z m -79.50916,-3.97178 c 0.21828,-0.14106 0.51593,-0.25648 0.66146,-0.25648 0.14552,0 0.086,0.11542 -0.1323,0.25648 -0.21828,0.14107 -0.51593,0.25648 -0.66146,0.25648 -0.14552,0 -0.086,-0.11541 0.1323,-0.25648 z m 71.4375,0 c -0.21828,-0.14106 -0.27782,-0.25648 -0.1323,-0.25648 0.14553,0 0.44318,0.11542 0.66146,0.25648 0.21828,0.14107 0.27782,0.25648 0.1323,0.25648 -0.14553,0 -0.44318,-0.11541 -0.66146,-0.25648 z m -54.55378,-5.4724 c 0.191,-0.0764 0.4192,-0.067 0.50712,0.0209 0.0879,0.0879 -0.0684,0.15046 -0.34727,0.13897 -0.30822,-0.0127 -0.37092,-0.0754 -0.15985,-0.15985 z m 37.83542,0 c 0.19099,-0.0764 0.4192,-0.067 0.50712,0.0209 0.0879,0.0879 -0.0684,0.15046 -0.34727,0.13897 -0.30823,-0.0127 -0.37092,-0.0754 -0.15985,-0.15985 z m -36.24792,-0.26459 c 0.191,-0.0764 0.4192,-0.067 0.50712,0.0209 0.0879,0.0879 -0.0684,0.15045 -0.34727,0.13896 -0.30822,-0.0127 -0.37092,-0.0754 -0.15985,-0.15985 z m 34.66042,0 c 0.19099,-0.0764 0.4192,-0.067 0.50712,0.0209 0.0879,0.0879 -0.0684,0.15045 -0.34727,0.13896 -0.30823,-0.0127 -0.37092,-0.0754 -0.15985,-0.15985 z m -33.35404,-0.25907 c 0.1819,-0.0734 0.47956,-0.0734 0.66146,0 0.1819,0.0734 0.0331,0.13345 -0.33073,0.13345 -0.3638,0 -0.51263,-0.0601 -0.33073,-0.13345 z m 31.75,0 c 0.1819,-0.0734 0.47956,-0.0734 0.66146,0 0.1819,0.0734 0.0331,0.13345 -0.33073,0.13345 -0.3638,0 -0.51263,-0.0601 -0.33073,-0.13345 z m -28.83958,-0.52916 c 0.1819,-0.0734 0.47955,-0.0734 0.66146,0 0.1819,0.0734 0.0331,0.13345 -0.33073,0.13345 -0.36381,0 -0.51263,-0.0601 -0.33073,-0.13345 z m 25.92916,0 c 0.18191,-0.0734 0.47956,-0.0734 0.66146,0 0.1819,0.0734 0.0331,0.13345 -0.33073,0.13345 -0.3638,0 -0.51263,-0.0601 -0.33073,-0.13345 z m -23.94479,-0.27175 c 0.25466,-0.0665 0.67138,-0.0665 0.92604,0 0.25467,0.0666 0.0463,0.12101 -0.46302,0.12101 -0.50932,0 -0.71768,-0.0545 -0.46302,-0.12101 z m 21.69584,0 c 0.25466,-0.0665 0.67138,-0.0665 0.92604,0 0.25466,0.0666 0.0463,0.12101 -0.46302,0.12101 -0.50933,0 -0.71769,-0.0545 -0.46302,-0.12101 z m -18.91463,-0.26932 c 0.32912,-0.0633 0.80537,-0.0609 1.05834,0.005 0.25296,0.0662 -0.0163,0.11801 -0.5984,0.11507 -0.58209,-0.003 -0.78906,-0.0571 -0.45994,-0.12041 z m 16.13959,0 c 0.32911,-0.0633 0.80536,-0.0609 1.05833,0.005 0.25296,0.0662 -0.0163,0.11801 -0.5984,0.11507 -0.58208,-0.003 -0.78905,-0.0571 -0.45993,-0.12041 z m -10.18955,-0.2747 c 1.41883,-0.0476 3.74055,-0.0476 5.15938,0 1.41883,0.0476 0.25797,0.0865 -2.57969,0.0865 -2.83766,0 -3.99852,-0.0389 -2.57969,-0.0865 z m 0,-21.96042 c 1.41883,-0.0476 3.74055,-0.0476 5.15938,0 1.41883,0.0476 0.25797,0.0865 -2.57969,0.0865 -2.83766,0 -3.99852,-0.0389 -2.57969,-0.0865 z m -6.08541,-0.24972 c 0.25466,-0.0665 0.67138,-0.0665 0.92604,0 0.25466,0.0666 0.0463,0.121 -0.46302,0.121 -0.50933,0 -0.71769,-0.0544 -0.46302,-0.121 z m 16.27496,-0.005 c 0.32911,-0.0633 0.80536,-0.0609 1.05833,0.005 0.25296,0.0662 -0.0163,0.118 -0.5984,0.11507 -0.58208,-0.003 -0.78905,-0.0571 -0.45993,-0.12041 z m -20.11142,-0.51727 c 0.1819,-0.0734 0.47955,-0.0734 0.66146,0 0.1819,0.0734 0.0331,0.13345 -0.33073,0.13345 -0.36381,0 -0.51263,-0.0601 -0.33073,-0.13345 z m 24.34166,0 c 0.18191,-0.0734 0.47956,-0.0734 0.66146,0 0.1819,0.0734 0.0331,0.13345 -0.33073,0.13345 -0.3638,0 -0.51263,-0.0601 -0.33073,-0.13345 z m -26.19375,-0.26458 c 0.18191,-0.0734 0.47956,-0.0734 0.66146,0 0.1819,0.0734 0.0331,0.13345 -0.33073,0.13345 -0.3638,0 -0.51263,-0.0601 -0.33073,-0.13345 z m 28.04584,0 c 0.1819,-0.0734 0.47955,-0.0734 0.66146,0 0.1819,0.0734 0.0331,0.13345 -0.33073,0.13345 -0.36381,0 -0.51263,-0.0601 -0.33073,-0.13345 z m 3.45612,-0.53468 c 0.19099,-0.0764 0.4192,-0.067 0.50712,0.0209 0.0879,0.0879 -0.0684,0.15046 -0.34727,0.13897 -0.30823,-0.0127 -0.37092,-0.0754 -0.15985,-0.15985 z m -37.04167,-0.52917 c 0.191,-0.0764 0.4192,-0.067 0.50712,0.0209 0.0879,0.0879 -0.0683,0.15045 -0.34727,0.13896 -0.30822,-0.0127 -0.37092,-0.0754 -0.15985,-0.15985 z m 39.42292,0 c 0.19099,-0.0764 0.4192,-0.067 0.50712,0.0209 0.0879,0.0879 -0.0684,0.15045 -0.34727,0.13896 -0.30823,-0.0127 -0.37092,-0.0754 -0.15985,-0.15985 z m 7.19336,-1.93593 c 0.21828,-0.14106 0.57547,-0.24993 0.79375,-0.24193 0.26169,0.01 0.21662,0.092 -0.1323,0.24193 -0.72736,0.31256 -1.1451,0.31256 -0.66145,0 z m -64.02917,-3.83645 c -0.3638,-0.20797 -0.53539,-0.38235 -0.3813,-0.3875 0.15409,-0.005 0.51128,0.16543 0.79375,0.37908 0.65325,0.4941 0.4446,0.49835 -0.41245,0.008 z m 74.20005,0.0146 c 0.28247,-0.22632 0.62974,-0.41148 0.7717,-0.41148 0.33616,0 0.18606,0.12221 -0.62383,0.50792 -0.6237,0.29704 -0.63214,0.29153 -0.14787,-0.0964 z m -79.22713,-2.52815 c -0.23847,-0.1541 -0.2711,-0.25809 -0.0818,-0.26053 0.17331,-0.002 0.38869,0.11501 0.47863,0.26053 0.20302,0.32849 0.11142,0.32849 -0.39687,0 z m 84.33152,-0.0328 c 0.17948,-0.18082 0.39297,-0.26211 0.47444,-0.18065 0.0815,0.0815 -0.0654,0.22941 -0.32632,0.32877 -0.37709,0.14358 -0.40748,0.11319 -0.14812,-0.14812 z m -87.38981,-1.70155 c -0.49319,-0.39513 -0.48994,-0.40001 0.0817,-0.12298 0.32743,0.15866 0.59532,0.34382 0.59532,0.41146 0,0.20247 -0.13722,0.144 -0.67704,-0.28848 z m 90.1062,0.2978 c 0,-0.0728 0.23813,-0.25974 0.52917,-0.4155 0.29104,-0.15576 0.52917,-0.22367 0.52917,-0.15091 0,0.0728 -0.23813,0.25973 -0.52917,0.4155 -0.29104,0.15576 -0.52917,0.22367 -0.52917,0.15091 z m -97.40041,-5.11185 c -0.32911,-0.41965 -0.31975,-0.42901 0.0999,-0.0999 0.25466,0.19972 0.46302,0.40808 0.46302,0.46302 0,0.21777 -0.21727,0.0776 -0.56291,-0.36312 z m -2.38125,-1.85209 c -0.32911,-0.41964 -0.31975,-0.429 0.0999,-0.0999 0.44073,0.34564 0.58089,0.56292 0.36313,0.56292 -0.0549,0 -0.2633,-0.20836 -0.46302,-0.46303 z m 109.57125,0.36313 c 0,-0.0549 0.20836,-0.2633 0.46302,-0.46302 0.41964,-0.32911 0.429,-0.31975 0.0999,0.0999 -0.34564,0.44073 -0.56291,0.58089 -0.56291,0.36313 z m -111.38959,-1.78806 -1.19062,-1.07841 1.12081,0.84105 c 0.97482,0.7315 1.60058,1.34862 1.3422,1.32367 -0.045,-0.004 -0.61754,-0.49318 -1.27239,-1.08631 z m 112.53007,0.91076 c 0.22241,-0.35987 2.2991,-2.03545 2.2991,-1.85503 0,0.0674 -0.56,0.58152 -1.24444,1.14237 -0.68445,0.56085 -1.15904,0.88155 -1.05466,0.71266 z m -115.58942,-3.58687 -0.77711,-0.85989 0.8599,0.7771 c 0.47294,0.42741 0.8599,0.81436 0.8599,0.8599 0,0.2044 -0.21832,0.0245 -0.94269,-0.77711 z m 118.94685,0.77711 c 0,-0.0455 0.38696,-0.43249 0.8599,-0.8599 l 0.8599,-0.7771 -0.77711,0.85989 c -0.72437,0.80155 -0.94269,0.98151 -0.94269,0.77711 z m -134.27781,-15.858356 -7.40656,-7.474479 7.47448,7.40656 c 4.11096,4.07361 7.47448,7.437125 7.47448,7.474479 0,0.187076 -0.65946,-0.46051 -7.5424,-7.40656 z m 151.34344,-0.992188 c 4.07263,-4.074583 7.46432,-7.408333 7.53708,-7.408333 0.0728,0 -3.19986,3.33375 -7.2725,7.408333 -4.07263,4.074584 -7.46432,7.408333 -7.53708,7.408333 -0.0728,0 3.19986,-3.333749 7.2725,-7.408333 z m -78.11823,6.682499 c 1.12779,-0.0496 2.97325,-0.0496 4.10104,0 1.12779,0.0496 0.20505,0.09018 -2.05052,0.09018 -2.25557,0 -3.17831,-0.04058 -2.05052,-0.09018 z m -4.75747,-0.251269 c 0.25744,-0.06708 0.61462,-0.06267 0.79375,0.0098 0.17914,0.07248 -0.0315,0.127362 -0.46805,0.12197 -0.43656,-0.0054 -0.58313,-0.06469 -0.3257,-0.131773 z m 12.96459,0 c 0.25743,-0.06708 0.61462,-0.06267 0.79375,0.0098 0.17913,0.07248 -0.0315,0.127362 -0.46806,0.12197 -0.43656,-0.0054 -0.58312,-0.06469 -0.32569,-0.131773 z m -14.954,-0.256458 c 0.18191,-0.0734 0.47956,-0.0734 0.66146,0 0.1819,0.0734 0.0331,0.133453 -0.33073,0.133453 -0.3638,0 -0.51263,-0.06006 -0.33073,-0.133453 z m 16.93334,0 c 0.1819,-0.0734 0.47955,-0.0734 0.66146,0 0.1819,0.0734 0.0331,0.133453 -0.33073,0.133453 -0.36381,0 -0.51263,-0.06006 -0.33073,-0.133453 z m -17.97513,-0.270095 c 0.19099,-0.07643 0.4192,-0.06703 0.50712,0.02088 0.0879,0.08792 -0.0684,0.150453 -0.34727,0.138964 -0.30823,-0.0127 -0.37092,-0.07539 -0.15985,-0.15985 z m 19.31458,0 c 0.191,-0.07643 0.4192,-0.06703 0.50712,0.02088 0.0879,0.08792 -0.0684,0.150453 -0.34727,0.138964 -0.30822,-0.0127 -0.37092,-0.07539 -0.15985,-0.15985 z M 475.40665,92.10736 c 0.19099,-0.07643 0.4192,-0.06703 0.50712,0.02088 0.0879,0.08792 -0.0684,0.150452 -0.34727,0.138964 -0.30823,-0.0127 -0.37092,-0.07539 -0.15985,-0.159851 z m 22.48958,0 c 0.191,-0.07643 0.4192,-0.06703 0.50712,0.02088 0.0879,0.08792 -0.0684,0.150452 -0.34727,0.138964 -0.30822,-0.0127 -0.37092,-0.07539 -0.15985,-0.159851 z m -23.8125,-0.264583 c 0.191,-0.07643 0.4192,-0.06703 0.50712,0.02088 0.0879,0.08792 -0.0684,0.150453 -0.34727,0.138965 -0.30822,-0.0127 -0.37092,-0.07539 -0.15985,-0.159851 z m 25.13542,0 c 0.19099,-0.07643 0.4192,-0.06703 0.50712,0.02088 0.0879,0.08792 -0.0684,0.150453 -0.34727,0.138965 -0.30823,-0.0127 -0.37092,-0.07539 -0.15985,-0.159851 z m -28.04584,-0.79375 c 0.191,-0.07643 0.4192,-0.06703 0.50712,0.02088 0.0879,0.08792 -0.0684,0.150453 -0.34726,0.138965 -0.30823,-0.0127 -0.37092,-0.07539 -0.15986,-0.159851 z m 30.95625,0 c 0.191,-0.07643 0.4192,-0.06703 0.50712,0.02088 0.0879,0.08792 -0.0684,0.150453 -0.34726,0.138965 -0.30823,-0.0127 -0.37092,-0.07539 -0.15986,-0.159851 z m -34.08164,-0.877594 c -0.21828,-0.141065 -0.27781,-0.256479 -0.13229,-0.256479 0.14552,0 0.44318,0.115414 0.66146,0.256479 0.21828,0.141065 0.27781,0.256479 0.13229,0.256479 -0.14552,0 -0.44318,-0.115414 -0.66146,-0.256479 z m 37.04167,0 c 0.21828,-0.141065 0.51594,-0.256479 0.66146,-0.256479 0.14552,0 0.086,0.115414 -0.13229,0.256479 -0.21828,0.141065 -0.51594,0.256479 -0.66146,0.256479 -0.14552,0 -0.086,-0.115414 0.13229,-0.256479 z m -42.4812,-2.263555 c -0.48427,-0.387977 -0.47583,-0.393486 0.14787,-0.09645 0.80989,0.385713 0.95999,0.507924 0.62383,0.507924 -0.14196,0 -0.48923,-0.185161 -0.7717,-0.411472 z m 47.53033,0.315018 c 0.0606,-0.05305 0.4079,-0.23821 0.7717,-0.41147 0.6237,-0.297034 0.63214,-0.291525 0.14787,0.09645 -0.42148,0.337677 -1.28266,0.632692 -0.91957,0.315018 z m -49.30069,-1.113213 c -1.02585,-0.556533 -0.90966,-0.748594 0.13229,-0.218686 0.99735,0.507224 1.17386,0.638685 0.83785,0.624009 -0.1334,-0.0058 -0.56996,-0.188222 -0.97014,-0.405323 z m 50.88819,0.317275 c 0.27227,-0.243621 1.83004,-0.959488 1.83004,-0.840989 0,0.152395 -1.46681,0.939631 -1.75075,0.939631 -0.10424,0 -0.13992,-0.04439 -0.0793,-0.09864 z m -56.3783,-3.629165 c -0.56985,-0.466111 -0.58105,-0.501743 -0.0809,-0.257278 0.31932,0.156069 0.65377,0.402187 0.74322,0.546925 0.23881,0.386397 0.0784,0.316259 -0.66234,-0.289647 z m 62.29154,0.31709 c 0.18877,-0.305433 1.20846,-0.921457 1.20846,-0.730063 0,0.06114 -0.31231,0.315807 -0.69403,0.56592 -0.38172,0.250111 -0.61321,0.323977 -0.51443,0.164143 z m -66.02945,-3.13772 c -0.32911,-0.419645 -0.31975,-0.429004 0.0999,-0.0999 0.44073,0.345644 0.58089,0.562917 0.36313,0.562917 -0.0549,0 -0.2633,-0.208359 -0.46302,-0.46302 z m -1.3092,-1.058334 -0.64143,-0.727604 0.72761,0.641432 c 0.68005,0.599517 0.84894,0.813776 0.64143,0.813776 -0.0474,0 -0.37482,-0.327421 -0.72761,-0.727604 z m 72.78045,0.06615 c 0.34177,-0.363802 0.68094,-0.661458 0.7537,-0.661458 0.0728,0 -0.14734,0.297656 -0.48912,0.661458 -0.34178,0.363802 -0.68094,0.661458 -0.7537,0.661458 -0.0728,0 0.14734,-0.297656 0.48912,-0.661458 z M 445.69063,75.61935 c -1.7417,-1.74625 -3.1072,-3.175 -3.03444,-3.175 0.0728,0 1.55732,1.42875 3.29902,3.175 1.74171,1.74625 3.1072,3.175 3.03444,3.175 -0.0728,0 -1.55732,-1.42875 -3.29902,-3.175 z m 82.55,-0.529166 c 2.03339,-2.037292 3.75661,-3.704167 3.82937,-3.704167 0.0728,0 -1.53139,1.666875 -3.56478,3.704167 -2.0334,2.037291 -3.75661,3.704166 -3.82938,3.704166 -0.0728,0 1.5314,-1.666875 3.56479,-3.704166 z m -153.9875,-24.517082 -15.08125,-14.970958 15.1474,14.88164 c 13.46576,13.229513 15.35155,15.113999 15.08125,15.070838 -0.0364,-0.0058 -6.85271,-6.747494 -15.1474,-14.98152 z m 211.00521,13.866283 c 0,-0.07276 6.78656,-6.828965 15.08125,-15.013783 8.29469,-8.184819 15.08125,-14.821961 15.08125,-14.7492 0,0.07276 -6.78656,6.828964 -15.08125,15.013783 -8.29469,8.184819 -15.08125,14.82196 -15.08125,14.7492 z M 420.28886,50.417789 412.8823,42.94331 l 7.47448,7.406561 c 4.11096,4.073609 7.47448,7.437124 7.47448,7.474478 0,0.187077 -0.65946,-0.46051 -7.5424,-7.40656 z M 554.1698,49.425602 c 4.07263,-4.074584 7.46432,-7.408333 7.53708,-7.408333 0.0728,0 -3.19986,3.333749 -7.2725,7.408333 -4.07263,4.074583 -7.46432,7.408333 -7.53708,7.408333 -0.0728,0 3.19986,-3.33375 7.2725,-7.408333 z M 390.52501,20.982895 c -4.14543,-4.147344 -7.47762,-7.540625 -7.40485,-7.540625 0.0728,0 3.524,3.393281 7.66943,7.540625 4.14543,4.147343 7.47761,7.540624 7.40485,7.540624 -0.0728,0 -3.52401,-3.393281 -7.66943,-7.540624 z m 193.41041,-1.058334 c 4.14543,-4.147343 7.59668,-7.540624 7.66944,-7.540624 0.0728,0 -3.25943,3.393281 -7.40485,7.540624 -4.14543,4.147344 -7.59668,7.540625 -7.66944,7.540625 -0.0728,0 3.25943,-3.393281 7.40485,-7.540625 z m -246.99031,-6.283853 -7.40656,-7.4744792 7.47448,7.4065612 c 4.11096,4.073609 7.47448,7.437124 7.47448,7.474479 0,0.187075 -0.65946,-0.46051 -7.5424,-7.406561 z M 637.51355,12.64852 c 4.07262,-4.074583 7.46432,-7.4083328 7.53708,-7.4083328 0.0728,0 -3.19987,3.3337498 -7.2725,7.4083328 -4.07262,4.074583 -7.46432,7.408333 -7.53708,7.408333 -0.0728,0 3.19987,-3.33375 7.2725,-7.408333 z M 378.75105,9.4735203 c -2.17918,-2.1828124 -3.9026,-3.9687498 -3.82984,-3.9687498 0.0728,0 1.91525,1.7859374 4.09442,3.9687498 2.17918,2.1828127 3.9026,3.9687497 3.82984,3.9687497 -0.0728,0 -1.91525,-1.785937 -4.09442,-3.9687497 z M 595.18022,8.9443537 c 1.88756,-1.8917708 3.49146,-3.4395832 3.56422,-3.4395832 0.0728,0 -1.41208,1.5478124 -3.29964,3.4395832 -1.88757,1.8917703 -3.49148,3.4395833 -3.56424,3.4395833 -0.0728,0 1.41209,-1.547813 3.29966,-3.4395833 z"
         id="path79"
         inkscape:connector-curvature="0" />
      <path
         style="fill:#000000;stroke-width:0.26458332"
         d="m 328.34792,268.11691 c 0,-0.24862 95.2745,-94.57561 98.425,-97.44616 12.66742,-11.54183 26.89525,-18.55945 44.38277,-21.89101 8.40767,-1.60175 22.94763,-1.60175 31.3553,0 7.27102,1.38521 13.4174,3.23479 19.83986,5.97028 8.96884,3.82005 16.93034,8.98459 24.54291,15.92073 3.1505,2.87055 98.425,97.19754 98.425,97.44616 0,0.0655 -10.28359,0.1191 -22.85244,0.1191 H 599.61386 L 579.9153,248.72299 c -40.50783,-40.12626 -54.90479,-54.30383 -56.83404,-55.96797 -5.15181,-4.44387 -12.67285,-8.57384 -19.31459,-10.60608 -6.07938,-1.86018 -9.93741,-2.40905 -16.93333,-2.40905 -6.99592,0 -10.85395,0.54887 -16.93333,2.40905 -6.64174,2.03224 -14.16278,6.16221 -19.31459,10.60608 -1.92925,1.66414 -16.32621,15.84171 -56.83404,55.96797 l -19.69857,19.51302 h -22.85245 c -12.56884,0 -22.85244,-0.0536 -22.85244,-0.1191 z M 477.83751,125.10006 c -14.19721,-1.77295 -25.65438,-5.56161 -36.64479,-12.11772 -8.76701,-5.22978 -10.84859,-7.08297 -36.46264,-32.461893 C 392.24271,68.147708 376.64552,52.73924 370.06966,46.279404 363.4938,39.819571 351.49698,27.943086 343.41007,19.887219 L 328.70659,5.2401872 h 22.90629 22.90629 L 386.2924,16.797724 c 6.47528,6.356645 18.44073,18.175776 26.5899,26.264733 33.52622,33.27852 37.02409,36.688073 39.70672,38.704262 4.44381,3.339838 8.28736,5.52999 13.09854,7.463887 16.79175,6.749579 35.36665,5.163603 50.90404,-4.346331 5.42883,-3.322812 4.75674,-2.685931 45.25111,-42.880439 8.14917,-8.088823 19.87275,-19.669706 26.05241,-25.735299 L 599.13087,5.2401872 h 22.89365 22.89368 l -7.14189,7.1710568 c -3.92806,3.944081 -15.43556,15.344315 -25.57219,25.333853 -10.13664,9.989537 -29.12712,28.762337 -42.20104,41.717331 -26.77385,26.530282 -28.70813,28.257932 -37.52911,33.519912 -10.02196,5.97839 -20.1081,9.50465 -33.60209,11.74774 -2.97103,0.49387 -17.93464,0.75707 -21.03437,0.36998 z"
         id="path77"
         inkscape:connector-curvature="0" />
    </g>
  </g>
</svg>
